<mxfile host="app.diagrams.net" agent="Mozilla/5.0 (Windows NT 10.0; Win64; x64) AppleWebKit/537.36 (KHTML, like Gecko) Chrome/135.0.0.0 Safari/537.36" version="26.2.12">
  <diagram name="Page-1" id="NKxkYocL6Ho-95YjFCsY">
    <mxGraphModel dx="788" dy="417" grid="1" gridSize="10" guides="1" tooltips="1" connect="1" arrows="1" fold="1" page="1" pageScale="1" pageWidth="850" pageHeight="1100" math="0" shadow="0">
      <root>
        <mxCell id="0" />
        <mxCell id="1" parent="0" />
        <mxCell id="FIsQ3oBpCCkbk4hruAds-8" value="" style="edgeStyle=orthogonalEdgeStyle;rounded=0;orthogonalLoop=1;jettySize=auto;html=1;" edge="1" parent="1" source="FIsQ3oBpCCkbk4hruAds-1">
          <mxGeometry relative="1" as="geometry">
            <mxPoint x="315" y="210" as="targetPoint" />
          </mxGeometry>
        </mxCell>
        <mxCell id="FIsQ3oBpCCkbk4hruAds-1" value="employees" style="rounded=0;whiteSpace=wrap;html=1;" vertex="1" parent="1">
          <mxGeometry x="80" y="200" width="120" height="60" as="geometry" />
        </mxCell>
        <mxCell id="FIsQ3oBpCCkbk4hruAds-2" value="variable" style="text;html=1;align=center;verticalAlign=middle;resizable=0;points=[];autosize=1;strokeColor=none;fillColor=none;" vertex="1" parent="1">
          <mxGeometry x="105" y="268" width="70" height="30" as="geometry" />
        </mxCell>
        <mxCell id="FIsQ3oBpCCkbk4hruAds-3" value="" style="whiteSpace=wrap;html=1;aspect=fixed;" vertex="1" parent="1">
          <mxGeometry x="315" y="80" width="260" height="260" as="geometry" />
        </mxCell>
        <mxCell id="FIsQ3oBpCCkbk4hruAds-4" value="employee" style="rounded=0;whiteSpace=wrap;html=1;" vertex="1" parent="1">
          <mxGeometry x="330" y="100" width="230" height="60" as="geometry" />
        </mxCell>
        <mxCell id="FIsQ3oBpCCkbk4hruAds-5" value="employee" style="rounded=0;whiteSpace=wrap;html=1;" vertex="1" parent="1">
          <mxGeometry x="330" y="148" width="230" height="60" as="geometry" />
        </mxCell>
        <mxCell id="FIsQ3oBpCCkbk4hruAds-6" value="employee" style="rounded=0;whiteSpace=wrap;html=1;" vertex="1" parent="1">
          <mxGeometry x="330" y="208" width="230" height="60" as="geometry" />
        </mxCell>
        <mxCell id="FIsQ3oBpCCkbk4hruAds-7" value="employee" style="rounded=0;whiteSpace=wrap;html=1;" vertex="1" parent="1">
          <mxGeometry x="330" y="268" width="230" height="60" as="geometry" />
        </mxCell>
        <mxCell id="FIsQ3oBpCCkbk4hruAds-9" value="List" style="text;html=1;align=center;verticalAlign=middle;resizable=0;points=[];autosize=1;strokeColor=none;fillColor=none;" vertex="1" parent="1">
          <mxGeometry x="315" y="48" width="40" height="30" as="geometry" />
        </mxCell>
      </root>
    </mxGraphModel>
  </diagram>
</mxfile>
